# xmcd
#
# Track frame offsets: 
#        150
#        7403
#        21135
#        32168
#        43775
#        54118
#        64671
#        77745
#        90187
#        101551
#        114225
#        121751
#        132035
#        141739
#        154396
#        169884
#        181890
#        193433
#        204088
#        215072
#
# Disc length: 3059 seconds
#
# Revision: 2
# Processed by: cddbd v1.5.2PL0 Copyright (c) Steve Scherf et al.
# Submitted via: ExactAudioCopy v1.1
#
DISCID=170bf114
DTITLE=Various Artist - CD1_想い出のカントリー・ミューシック
DYEAR=2011
DGENRE=Country
TTITLE0=Devil's dream medley
TTITLE1=By the water of Minnetonka 
TTITLE2=Cold cold heart
TTITLE3=My shoes keep walkin back to you
TTITLE4=Live fast, love hard, die young
TTITLE5=Teenage boogie
TTITLE6=Time changes everything
TTITLE7=Candy kisses
TTITLE8=Long gone lonesome blues
TTITLE9=Wildwood flower
TTITLE10=Turkey in the straw medley
TTITLE11=Honky tonk man
TTITLE12=Slowly
TTITLE13=Most of all
TTITLE14=North wind
TTITLE15=San Antonio rose
TTITLE16=Lovesick blues
TTITLE17=A fool such as I
TTITLE18=Cattle call
TTITLE19=Country church
EXTD=2-disc set, recordings  from 1958 - 59 
EXTT0=
EXTT1=
EXTT2=
EXTT3=
EXTT4=
EXTT5=
EXTT6=
EXTT7=
EXTT8=
EXTT9=
EXTT10=
EXTT11=
EXTT12=
EXTT13=
EXTT14=
EXTT15=
EXTT16=
EXTT17=
EXTT18=
EXTT19=
PLAYORDER=
